<svg width="56" height="57" viewBox="0 0 56 57" fill="none" xmlns="http://www.w3.org/2000/svg">
<mask id="mask0_6314_2819" style="mask-type:luminance" maskUnits="userSpaceOnUse" x="0" y="0" width="56" height="57">
<path d="M56 0.619873H0V56.6199H56V0.619873Z" fill="white"/>
</mask>
<g mask="url(#mask0_6314_2819)">
<path d="M56 30.4017L47.3455 36.6381L50.6545 46.6926L39.9636 46.5653L36.6545 56.6199L28 50.3835L19.3455 56.6199L16.0364 46.5653L5.34545 46.6926L8.65455 36.6381L0 30.4017L8.65455 24.2926L5.34545 14.2381H16.0364L19.3455 4.18355L28 10.2926L36.6545 4.05627L39.9636 14.1108H50.6545L47.3455 24.1653L56 30.4017Z" fill="#634C9F"/>
<path d="M42.6351 18.5654C46.1987 16.4017 49.5078 13.6017 51.7987 10.2927C52.9442 8.63812 53.9624 6.72903 53.7078 4.81994C53.4533 3.03812 52.1805 1.51085 50.3987 1.2563C49.5078 1.00176 48.6169 1.12903 47.8533 1.38358C47.0896 1.51085 46.326 1.76539 45.8169 2.14721C44.2896 3.16539 43.6533 5.20176 43.1442 6.98357C42.2533 10.2927 41.4896 13.3472 40.9805 16.6563" stroke="#1D1D1B" stroke-width="0.5714" stroke-miterlimit="10" stroke-linecap="round" stroke-linejoin="round"/>
<path d="M38.4366 45.6745L24.5638 44.9108L18.582 32.8199L35.1275 8.12903L54.982 20.9836L38.4366 45.6745Z" fill="#FFB709"/>
<path d="M42.6367 18.5654C46.2004 16.4017 49.5094 13.6017 51.8004 10.2927C52.9458 8.63812 53.964 6.72903 53.7094 4.81994C53.4549 3.03812 52.1822 1.51085 50.4004 1.2563C49.5094 1.00176 48.6185 1.12903 47.8549 1.38358C47.0913 1.51085 46.3276 1.76539 45.8185 2.14721C44.2913 3.16539 43.6549 5.20176 43.1458 6.98357C42.8913 7.61994 42.764 8.12903 42.6367 8.89266" stroke="#1D1D1B" stroke-width="0.5714" stroke-miterlimit="10" stroke-linecap="round" stroke-linejoin="round"/>
<path d="M42.5078 27.0927L26.9805 29.5109L27.8715 30.5291L43.3987 28.1109L42.5078 27.0927Z" fill="#1D1D1B"/>
<path d="M37.5472 31.42C37.2926 31.2927 37.1654 31.2927 37.0381 31.2927C36.529 31.1655 36.0199 31.1655 35.5108 31.2927C35.0017 31.5473 34.3654 31.8018 33.8563 32.1836C33.3472 32.6927 32.9654 33.2018 32.7108 33.7109C32.4563 34.22 32.4563 34.7291 32.5835 35.2382C32.7108 35.7473 32.9654 36.2564 33.3472 36.6382L33.4745 36.7655C34.1108 37.4018 34.7472 37.6564 35.5108 37.6564C36.2745 37.6564 37.1654 37.2746 37.929 36.6382C38.6926 35.8746 39.0745 35.1109 39.2017 34.3473C39.329 33.5836 38.9472 32.82 38.4381 32.1836C38.1835 31.8018 37.8017 31.6746 37.5472 31.42ZM34.6199 36.5109C34.4926 36.3836 34.2381 36.2564 34.1108 36.1291C33.729 35.7473 33.6017 35.2382 33.729 34.6018C33.8563 34.0927 34.1108 33.5836 34.7472 32.9473C35.3835 32.4382 35.8926 32.0564 36.4017 32.0564C36.529 32.0564 36.529 32.0564 36.6563 32.0564C37.1654 32.0564 37.4199 32.1836 37.8017 32.5655C38.1835 32.9473 38.3108 33.4564 38.1835 34.0927C38.0563 34.6018 37.6745 35.1109 37.1654 35.62C36.6563 36.1291 36.0199 36.5109 35.5108 36.5109C35.2563 36.6382 34.8745 36.6382 34.6199 36.5109Z" fill="#1D1D1B"/>
<path d="M31.945 25.6927C32.5814 26.3291 33.2178 26.5836 33.9814 26.5836C33.9814 26.5836 33.9814 26.5836 34.1087 26.5836C34.8723 26.5836 35.7632 26.2018 36.5268 25.5654C37.2905 24.8018 37.6723 24.0382 37.7996 23.2745C37.9268 22.5109 37.545 21.7473 37.0359 21.1109C36.7814 20.7291 36.3996 20.6018 36.145 20.4745C35.7632 20.22 35.3814 20.22 34.8723 20.22C34.1087 20.22 33.2178 20.6018 32.4541 21.2382C31.6905 22.0018 31.3087 22.7654 31.1814 23.5291C30.9268 24.2927 31.1814 24.9291 31.945 25.6927ZM34.9996 21.1109C35.3814 21.1109 35.7632 21.3654 36.2723 21.62C36.6541 22.0018 36.7814 22.5109 36.6541 23.1473C36.5268 23.6564 36.145 24.1654 35.6359 24.8018C34.9996 25.3109 34.4905 25.6927 33.9814 25.6927C33.5996 25.82 33.345 25.6927 33.0905 25.5654C32.8359 25.4382 32.7087 25.3109 32.5814 25.1836C32.1996 24.8018 32.0723 24.2927 32.1996 23.6564C32.3268 23.1473 32.7087 22.6382 33.2178 22.0018C33.8541 21.4927 34.3632 21.1109 34.8723 21.1109C34.745 21.1109 34.8723 21.1109 34.9996 21.1109Z" fill="#1D1D1B"/>
</g>
</svg>
