<svg width="11" height="11" viewBox="0 0 11 11" fill="none" xmlns="http://www.w3.org/2000/svg">
<path d="M10.165 4.78595H6.02097V0.57795C6.02097 0.439284 5.97297 0.316617 5.87697 0.20995C5.78097 0.103284 5.65297 0.0499506 5.49297 0.0499506C5.33297 0.0499506 5.20497 0.103284 5.10897 0.20995C5.01297 0.316617 4.96497 0.439284 4.96497 0.57795V4.72195H0.820969C0.682302 4.72195 0.559635 4.76995 0.452969 4.86595C0.346302 4.96195 0.292969 5.09262 0.292969 5.25795C0.292969 5.42328 0.340969 5.55128 0.436969 5.64195C0.532969 5.73262 0.660969 5.77795 0.820969 5.77795H4.96497V9.92195C4.96497 10.0606 5.01297 10.1833 5.10897 10.29C5.20497 10.3966 5.33564 10.45 5.50097 10.45C5.6663 10.45 5.7943 10.402 5.88497 10.306C5.97564 10.21 6.02097 10.082 6.02097 9.92195V5.77795H10.165C10.3036 5.77795 10.4263 5.72995 10.533 5.63395C10.6396 5.53795 10.693 5.40995 10.693 5.24995C10.693 5.08995 10.6423 4.97262 10.541 4.89795C10.4396 4.82328 10.3143 4.78595 10.165 4.78595Z" fill="#634C9F"/>
</svg>
